<svg width="30" height="30" viewBox="0 0 30 30" fill="none" xmlns="http://www.w3.org/2000/svg">
<path d="M15.1484 15.8789C15.1484 16.3802 15.0833 16.8327 14.9531 17.2363C14.8294 17.6335 14.6634 17.985 14.4551 18.291C14.2467 18.597 14.0026 18.8574 13.7227 19.0723C13.4427 19.2871 13.153 19.4629 12.8535 19.5996C12.554 19.7363 12.248 19.8372 11.9355 19.9023C11.6296 19.9674 11.3398 20 11.0664 20H1.27148V17.4609H11.0664C11.5547 17.4609 11.9323 17.3177 12.1992 17.0312C12.4727 16.7448 12.6094 16.3607 12.6094 15.8789C12.6094 15.6445 12.5736 15.4297 12.502 15.2344C12.4303 15.0391 12.3262 14.8698 12.1895 14.7266C12.0592 14.5833 11.8965 14.4727 11.7012 14.3945C11.5124 14.3164 11.3008 14.2773 11.0664 14.2773H5.22656C4.81641 14.2773 4.3737 14.2057 3.89844 14.0625C3.42318 13.9128 2.98047 13.6751 2.57031 13.3496C2.16667 13.0241 1.82812 12.5977 1.55469 12.0703C1.28776 11.543 1.1543 10.8984 1.1543 10.1367C1.1543 9.375 1.28776 8.73372 1.55469 8.21289C1.82812 7.68555 2.16667 7.25911 2.57031 6.93359C2.98047 6.60156 3.42318 6.36393 3.89844 6.2207C4.3737 6.07096 4.81641 5.99609 5.22656 5.99609H13.8691V8.53516H5.22656C4.74479 8.53516 4.36719 8.68164 4.09375 8.97461C3.82682 9.26758 3.69336 9.65495 3.69336 10.1367C3.69336 10.625 3.82682 11.0124 4.09375 11.2988C4.36719 11.5788 4.74479 11.7188 5.22656 11.7188H11.0664H11.0859C11.3594 11.7253 11.6491 11.7643 11.9551 11.8359C12.2611 11.901 12.5638 12.0052 12.8633 12.1484C13.1693 12.2917 13.459 12.474 13.7324 12.6953C14.0059 12.9102 14.2467 13.1706 14.4551 13.4766C14.6699 13.7826 14.8392 14.1341 14.9629 14.5312C15.0866 14.9284 15.1484 15.3776 15.1484 15.8789Z" fill="#9DDE78"/>
<path d="M22.875 25H20.3359V17.998C20.3359 17.666 20.248 17.4154 20.0723 17.2461C19.8965 17.0703 19.6361 16.9824 19.291 16.9824H15.9902V25H13.4512V15.7031C13.4512 15.5273 13.4837 15.3646 13.5488 15.2148C13.6139 15.0586 13.7051 14.9251 13.8223 14.8145C13.9395 14.6973 14.0762 14.6061 14.2324 14.541C14.3887 14.4759 14.5547 14.4434 14.7305 14.4434H19.3105C19.6621 14.4434 20.0397 14.5052 20.4434 14.6289C20.847 14.7526 21.2311 14.9512 21.5957 15.2246V14.4434H25.0332C25.2741 14.4434 25.528 14.4727 25.7949 14.5312C26.0618 14.5833 26.3255 14.668 26.5859 14.7852C26.8529 14.9023 27.1068 15.0553 27.3477 15.2441C27.5885 15.4264 27.8001 15.651 27.9824 15.918C28.1647 16.1784 28.3112 16.4811 28.4219 16.8262C28.5326 17.1712 28.5879 17.5618 28.5879 17.998V25H26.0488V17.998C26.0488 17.666 25.9642 17.4154 25.7949 17.2461C25.6322 17.0703 25.3783 16.9824 25.0332 16.9824H22.748C22.8327 17.2949 22.875 17.6335 22.875 17.998V25Z" fill="#9DDE78"/>
</svg>
