<svg width="118" height="18" viewBox="0 0 118 18" fill="none" xmlns="http://www.w3.org/2000/svg">
<path d="M17.4927 12.3535C17.4927 12.9801 17.4113 13.5457 17.2485 14.0503C17.0939 14.5467 16.8864 14.9862 16.626 15.3687C16.3656 15.7511 16.0604 16.0767 15.7104 16.3452C15.3605 16.6138 14.9984 16.8335 14.624 17.0044C14.2497 17.1753 13.8672 17.3014 13.4766 17.3828C13.0941 17.4642 12.7319 17.5049 12.3901 17.5049H0.146484V14.3311H12.3901C13.0005 14.3311 13.4725 14.152 13.8062 13.7939C14.1479 13.4359 14.3188 12.9557 14.3188 12.3535C14.3188 12.0605 14.2741 11.792 14.1846 11.5479C14.0951 11.3037 13.9648 11.0921 13.7939 10.9131C13.6312 10.734 13.4277 10.5957 13.1836 10.498C12.9476 10.4004 12.6831 10.3516 12.3901 10.3516H5.09033C4.57764 10.3516 4.02425 10.262 3.43018 10.083C2.8361 9.89583 2.28271 9.5988 1.77002 9.19189C1.26546 8.78499 0.842285 8.25195 0.500488 7.59277C0.166829 6.93359 0 6.12793 0 5.17578C0 4.22363 0.166829 3.42204 0.500488 2.771C0.842285 2.11182 1.26546 1.57878 1.77002 1.17188C2.28271 0.756836 2.8361 0.459798 3.43018 0.280762C4.02425 0.0935872 4.57764 0 5.09033 0H15.8936V3.17383H5.09033C4.48812 3.17383 4.01611 3.35693 3.67432 3.72314C3.34066 4.08936 3.17383 4.57357 3.17383 5.17578C3.17383 5.78613 3.34066 6.27035 3.67432 6.62842C4.01611 6.97835 4.48812 7.15332 5.09033 7.15332H12.3901H12.4146C12.7563 7.16146 13.1185 7.21029 13.501 7.2998C13.8835 7.38118 14.2619 7.51139 14.6362 7.69043C15.0187 7.86947 15.3809 8.09733 15.7227 8.37402C16.0645 8.64258 16.3656 8.9681 16.626 9.35059C16.8945 9.73307 17.1061 10.1725 17.2607 10.6689C17.4154 11.1654 17.4927 11.7269 17.4927 12.3535ZM31.2134 7.48291H25.6714V17.5049H22.4609V7.48291H18.335V4.30908H22.4609V0H25.6714V4.30908H31.2134V7.48291ZM47.7295 15.9058C47.7295 16.1336 47.6888 16.3452 47.6074 16.5405C47.526 16.7358 47.4121 16.9067 47.2656 17.0532C47.1273 17.1916 46.9604 17.3014 46.7651 17.3828C46.578 17.4642 46.3745 17.5049 46.1548 17.5049H38.9771C38.5864 17.5049 38.1673 17.4601 37.7197 17.3706C37.2803 17.2811 36.8449 17.1387 36.4136 16.9434C35.9823 16.7399 35.5632 16.4876 35.1562 16.1865C34.7575 15.8773 34.4076 15.507 34.1064 15.0757C33.8053 14.6362 33.5612 14.1317 33.374 13.562C33.195 12.9924 33.1055 12.3494 33.1055 11.6333V4.30908H36.2793V11.6333C36.2793 12.0483 36.3485 12.4227 36.4868 12.7563C36.6333 13.0819 36.8286 13.3626 37.0728 13.5986C37.3169 13.8346 37.6017 14.0177 37.9272 14.1479C38.2609 14.27 38.619 14.3311 39.0015 14.3311H44.5557V4.30908H47.7295V15.9058ZM62.4878 17.5049H59.314V8.75244C59.314 8.3374 59.2041 8.02409 58.9844 7.8125C58.7646 7.59277 58.4391 7.48291 58.0078 7.48291H53.8818V17.5049H50.708V5.88379C50.708 5.66406 50.7487 5.46061 50.8301 5.27344C50.9115 5.07812 51.0254 4.9113 51.1719 4.77295C51.3184 4.62646 51.4893 4.51253 51.6846 4.43115C51.8799 4.34977 52.0874 4.30908 52.3071 4.30908H58.0322C58.4717 4.30908 58.9437 4.38639 59.4482 4.54102C59.9528 4.69564 60.4329 4.94385 60.8887 5.28564V4.30908H65.1855C65.4867 4.30908 65.804 4.3457 66.1377 4.41895C66.4714 4.48405 66.8009 4.58984 67.1265 4.73633C67.4601 4.88281 67.7775 5.07406 68.0786 5.31006C68.3797 5.53792 68.6442 5.81868 68.8721 6.15234C69.0999 6.47786 69.283 6.85628 69.4214 7.2876C69.5597 7.71891 69.6289 8.20719 69.6289 8.75244V17.5049H66.4551V8.75244C66.4551 8.3374 66.3493 8.02409 66.1377 7.8125C65.9342 7.59277 65.6169 7.48291 65.1855 7.48291H62.3291C62.4349 7.87354 62.4878 8.29671 62.4878 8.75244V17.5049ZM86.1816 13.1348C86.1816 13.5742 86.1043 14.0503 85.9497 14.563C85.7951 15.0675 85.5428 15.5396 85.1929 15.979C84.8511 16.4103 84.3994 16.7725 83.8379 17.0654C83.2845 17.3584 82.609 17.5049 81.8115 17.5049H76.0864C75.647 17.5049 75.1709 17.4276 74.6582 17.2729C74.1536 17.1183 73.6816 16.8701 73.2422 16.5283C72.8109 16.1784 72.4487 15.7267 72.1558 15.1733C71.8628 14.6118 71.7163 13.9323 71.7163 13.1348C71.7163 12.6953 71.7936 12.2192 71.9482 11.7065C72.1029 11.1938 72.3511 10.7218 72.6929 10.2905C73.0428 9.85107 73.4945 9.48486 74.0479 9.19189C74.6094 8.89893 75.2889 8.75244 76.0864 8.75244H81.8115V11.7798H76.0864C75.6551 11.7798 75.3215 11.9141 75.0854 12.1826C74.8494 12.443 74.7314 12.7686 74.7314 13.1592C74.7314 13.5742 74.8657 13.8997 75.1343 14.1357C75.411 14.3636 75.7365 14.4775 76.1108 14.4775H81.8115C82.2428 14.4775 82.5765 14.3473 82.8125 14.0869C83.0485 13.8265 83.1665 13.501 83.1665 13.1104V8.6792C83.1665 8.26416 83.0363 7.93457 82.7759 7.69043C82.5236 7.44629 82.2021 7.32422 81.8115 7.32422H74.8413V4.30908H81.8115C82.251 4.30908 82.723 4.38639 83.2275 4.54102C83.7402 4.69564 84.2122 4.94792 84.6436 5.29785C85.083 5.63965 85.4492 6.09131 85.7422 6.65283C86.0352 7.20622 86.1816 7.88167 86.1816 8.6792V13.1348ZM100.842 7.48291H95.3003V17.5049H92.0898V7.48291H87.9639V4.30908H92.0898V0H95.3003V4.30908H100.842V7.48291ZM117.078 8.6792C117.078 9.11865 117 9.59473 116.846 10.1074C116.691 10.612 116.439 11.084 116.089 11.5234C115.747 11.9548 115.295 12.3169 114.734 12.6099C114.181 12.9028 113.505 13.0493 112.708 13.0493H106.982V10.0342H112.708C113.139 10.0342 113.472 9.90397 113.708 9.64355C113.944 9.375 114.062 9.04541 114.062 8.65479C114.062 8.23975 113.928 7.91423 113.66 7.67822C113.399 7.44222 113.082 7.32422 112.708 7.32422H106.982C106.551 7.32422 106.217 7.4585 105.981 7.72705C105.745 7.98747 105.627 8.31299 105.627 8.70361V13.1348C105.627 13.5579 105.758 13.8875 106.018 14.1235C106.287 14.3595 106.616 14.4775 107.007 14.4775H112.708V17.5049H106.982C106.543 17.5049 106.067 17.4276 105.554 17.2729C105.05 17.1183 104.578 16.8701 104.138 16.5283C103.707 16.1784 103.345 15.7267 103.052 15.1733C102.759 14.6118 102.612 13.9323 102.612 13.1348V8.6792C102.612 8.23975 102.69 7.76774 102.844 7.26318C102.999 6.75049 103.247 6.27848 103.589 5.84717C103.939 5.40771 104.39 5.0415 104.944 4.74854C105.505 4.45557 106.185 4.30908 106.982 4.30908H112.708C113.147 4.30908 113.619 4.38639 114.124 4.54102C114.636 4.69564 115.108 4.94792 115.54 5.29785C115.979 5.63965 116.345 6.09131 116.638 6.65283C116.931 7.20622 117.078 7.88167 117.078 8.6792Z" fill="#9DDE78"/>
</svg>
