<svg width="80" height="12" viewBox="0 0 80 12" fill="none" xmlns="http://www.w3.org/2000/svg">
<path d="M11.895 8.40039C11.895 8.8265 11.8397 9.2111 11.729 9.5542C11.6239 9.89176 11.4827 10.1906 11.3057 10.4507C11.1286 10.7108 10.9211 10.9321 10.6831 11.1147C10.4451 11.2974 10.1989 11.4468 9.94434 11.563C9.68978 11.6792 9.42969 11.765 9.16406 11.8203C8.90397 11.8757 8.65771 11.9033 8.42529 11.9033H0.0996094V9.74512H8.42529C8.84033 9.74512 9.1613 9.62337 9.38818 9.37988C9.62061 9.13639 9.73682 8.8099 9.73682 8.40039C9.73682 8.20117 9.70638 8.01855 9.64551 7.85254C9.58464 7.68652 9.49609 7.54264 9.37988 7.4209C9.26921 7.29915 9.13086 7.20508 8.96484 7.13867C8.80436 7.07227 8.62451 7.03906 8.42529 7.03906H3.46143C3.11279 7.03906 2.73649 6.97819 2.33252 6.85645C1.92855 6.72917 1.55225 6.52718 1.20361 6.25049C0.860514 5.9738 0.572754 5.61133 0.340332 5.16309C0.113444 4.71484 0 4.16699 0 3.51953C0 2.87207 0.113444 2.32699 0.340332 1.88428C0.572754 1.43604 0.860514 1.07357 1.20361 0.796875C1.55225 0.514648 1.92855 0.312663 2.33252 0.190918C2.73649 0.0636393 3.11279 0 3.46143 0H10.8076V2.1582H3.46143C3.05192 2.1582 2.73096 2.28271 2.49854 2.53174C2.27165 2.78076 2.1582 3.11003 2.1582 3.51953C2.1582 3.93457 2.27165 4.26383 2.49854 4.50732C2.73096 4.74528 3.05192 4.86426 3.46143 4.86426H8.42529H8.44189C8.67432 4.86979 8.92057 4.90299 9.18066 4.96387C9.44076 5.01921 9.69808 5.10775 9.95264 5.22949C10.2127 5.35124 10.459 5.50618 10.6914 5.69434C10.9238 5.87695 11.1286 6.09831 11.3057 6.3584C11.4883 6.61849 11.6322 6.91732 11.7373 7.25488C11.8424 7.59245 11.895 7.97428 11.895 8.40039ZM21.2251 5.08838H17.4565V11.9033H15.2734V5.08838H12.4678V2.93018H15.2734V0H17.4565V2.93018H21.2251V5.08838ZM32.4561 10.8159C32.4561 10.9709 32.4284 11.1147 32.373 11.2476C32.3177 11.3804 32.2402 11.4966 32.1406 11.5962C32.0465 11.6903 31.9331 11.765 31.8003 11.8203C31.673 11.8757 31.5347 11.9033 31.3853 11.9033H26.5044C26.2388 11.9033 25.9538 11.8729 25.6494 11.812C25.3506 11.7511 25.0545 11.6543 24.7612 11.5215C24.4679 11.3831 24.1829 11.2116 23.9062 11.0068C23.6351 10.7965 23.3971 10.5448 23.1924 10.2515C22.9876 9.95264 22.8216 9.60954 22.6943 9.22217C22.5726 8.8348 22.5117 8.39762 22.5117 7.91064V2.93018H24.6699V7.91064C24.6699 8.19287 24.717 8.44743 24.811 8.67432C24.9106 8.89567 25.0435 9.08659 25.2095 9.24707C25.3755 9.40755 25.5692 9.53206 25.7905 9.62061C26.0174 9.70361 26.2609 9.74512 26.521 9.74512H30.2979V2.93018H32.4561V10.8159ZM42.4917 11.9033H40.3335V5.95166C40.3335 5.66943 40.2588 5.45638 40.1094 5.3125C39.96 5.16309 39.7386 5.08838 39.4453 5.08838H36.6396V11.9033H34.4814V4.00098C34.4814 3.85156 34.5091 3.71322 34.5645 3.58594C34.6198 3.45312 34.6973 3.33968 34.7969 3.24561C34.8965 3.146 35.0127 3.06852 35.1455 3.01318C35.2783 2.95785 35.4194 2.93018 35.5688 2.93018H39.4619C39.7607 2.93018 40.0817 2.98275 40.4248 3.08789C40.7679 3.19303 41.0944 3.36182 41.4043 3.59424V2.93018H44.3262C44.5309 2.93018 44.7467 2.95508 44.9736 3.00488C45.2005 3.04915 45.4246 3.12109 45.646 3.2207C45.8729 3.32031 46.0887 3.45036 46.2935 3.61084C46.4982 3.76579 46.6781 3.95671 46.833 4.18359C46.988 4.40495 47.1125 4.66227 47.2065 4.95557C47.3006 5.24886 47.3477 5.58089 47.3477 5.95166V11.9033H45.1895V5.95166C45.1895 5.66943 45.1175 5.45638 44.9736 5.3125C44.8353 5.16309 44.6195 5.08838 44.3262 5.08838H42.3838C42.4557 5.354 42.4917 5.64176 42.4917 5.95166V11.9033ZM58.6035 8.93164C58.6035 9.23047 58.5509 9.5542 58.4458 9.90283C58.3407 10.2459 58.1691 10.5669 57.9312 10.8657C57.6987 11.159 57.3916 11.4053 57.0098 11.6045C56.6335 11.8037 56.1742 11.9033 55.6318 11.9033H51.7388C51.4399 11.9033 51.1162 11.8507 50.7676 11.7456C50.4245 11.6405 50.1035 11.4717 49.8047 11.2393C49.5114 11.0013 49.2651 10.6942 49.0659 10.3179C48.8667 9.93604 48.7671 9.47396 48.7671 8.93164C48.7671 8.63281 48.8197 8.30908 48.9248 7.96045C49.0299 7.61182 49.1987 7.29085 49.4312 6.99756C49.6691 6.69873 49.9762 6.44971 50.3525 6.25049C50.7344 6.05127 51.1965 5.95166 51.7388 5.95166H55.6318V8.01025H51.7388C51.4455 8.01025 51.2186 8.10156 51.0581 8.28418C50.8976 8.46126 50.8174 8.68262 50.8174 8.94824C50.8174 9.23047 50.9087 9.45182 51.0913 9.6123C51.2795 9.76725 51.5008 9.84473 51.7554 9.84473H55.6318C55.9251 9.84473 56.152 9.75618 56.3125 9.5791C56.473 9.40202 56.5532 9.18066 56.5532 8.91504V5.90186C56.5532 5.61963 56.4647 5.39551 56.2876 5.22949C56.116 5.06348 55.8975 4.98047 55.6318 4.98047H50.8921V2.93018H55.6318C55.9307 2.93018 56.2516 2.98275 56.5947 3.08789C56.9434 3.19303 57.2643 3.36458 57.5576 3.60254C57.8564 3.83496 58.1055 4.14209 58.3047 4.52393C58.5039 4.90023 58.6035 5.35954 58.6035 5.90186V8.93164ZM68.5728 5.08838H64.8042V11.9033H62.6211V5.08838H59.8154V2.93018H62.6211V0H64.8042V2.93018H68.5728V5.08838ZM79.6128 5.90186C79.6128 6.20068 79.5602 6.52441 79.4551 6.87305C79.3499 7.21615 79.1784 7.53711 78.9404 7.83594C78.708 8.12923 78.4009 8.37549 78.019 8.57471C77.6427 8.77393 77.1834 8.87354 76.6411 8.87354H72.748V6.82324H76.6411C76.9344 6.82324 77.1613 6.7347 77.3218 6.55762C77.4823 6.375 77.5625 6.15088 77.5625 5.88525C77.5625 5.60303 77.4712 5.38167 77.2886 5.22119C77.1115 5.06071 76.8957 4.98047 76.6411 4.98047H72.748C72.4548 4.98047 72.2279 5.07178 72.0674 5.25439C71.9069 5.43148 71.8267 5.65283 71.8267 5.91846V8.93164C71.8267 9.2194 71.9152 9.44352 72.0923 9.604C72.2749 9.76449 72.499 9.84473 72.7646 9.84473H76.6411V11.9033H72.748C72.4492 11.9033 72.1255 11.8507 71.7769 11.7456C71.4338 11.6405 71.1128 11.4717 70.814 11.2393C70.5207 11.0013 70.2744 10.6942 70.0752 10.3179C69.876 9.93604 69.7764 9.47396 69.7764 8.93164V5.90186C69.7764 5.60303 69.8289 5.28206 69.9341 4.93896C70.0392 4.59033 70.208 4.26937 70.4404 3.97607C70.6784 3.67725 70.9855 3.42822 71.3618 3.229C71.7437 3.02979 72.2057 2.93018 72.748 2.93018H76.6411C76.9399 2.93018 77.2609 2.98275 77.604 3.08789C77.9526 3.19303 78.2736 3.36458 78.5669 3.60254C78.8657 3.83496 79.1147 4.14209 79.314 4.52393C79.5132 4.90023 79.6128 5.35954 79.6128 5.90186Z" fill="#2F3431"/>
</svg>
